<svg xmlns="http://www.w3.org/2000/svg" width="222.779" height="271.914" viewBox="0 0 222.779 271.914">
  <g id="bag" transform="translate(-668.243 -495.122)">
    <path id="Path_1" data-name="Path 1" d="M744.509,828.751H909.233L914.27,962.42H739.013Z" transform="translate(-47.008 -221.611)" fill="#f5db8c"/>
    <g id="Group_2" data-name="Group 2" transform="translate(668.243 495.122)">
      <path id="Path_2" data-name="Path 2" d="M917.933,659.135v-22.35a3.824,3.824,0,0,0-3.824-3.824h0a3.824,3.824,0,0,0-3.824,3.824v22.35H909.18a3.824,3.824,0,0,0-3.824,3.824h0a3.824,3.824,0,0,0,3.824,3.824h38.857a3.824,3.824,0,0,0,3.824-3.824h0a3.824,3.824,0,0,0-3.824-3.824Z" transform="translate(-825.744 -586.681)" fill="#18191d"/>
      <circle id="Ellipse_1" data-name="Ellipse 1" cx="11.554" cy="11.554" r="11.554" transform="translate(152.216 115.109)" fill="#18191d"/>
      <g id="Group_1" data-name="Group 1">
        <path id="Path_3" data-name="Path 3" d="M891.016,739.544c-.612-11.9-1.5-23.781-2.368-35.665-1.927-26.5-3.919-52.993-5.829-79.493q-1.864-25.865-3.548-51.743c-.235-3.589-1.8-5.158-5.5-5.091-8.437.153-16.878.047-25.318.046H831.221c0-11.268.115-22.007-.021-32.743-.393-30.987-32.873-49.643-59.506-34.207-2.753,1.6-6.422,3.444-3.967,7.258,2.111,3.28,5.133.939,7.621-.534.125-.074.249-.151.373-.225,18.758-11.172,44.284.047,47.083,21.7,1.624,12.561.3,25.5.3,38.462-1.252.2-2.822.01-3.666.7a5.745,5.745,0,0,0-2.117,3.766c-.014,1.014,1.35,2.5,2.446,2.963a12.49,12.49,0,0,0,4.719.474q18.989.033,37.978-.008h5.693c-3.01,4.549-5.382,8.551-8.214,12.194a7.2,7.2,0,0,1-4.821,2.622c-13.821.21-27.647.018-41.468.2-3.39.046-4.17-1.15-4.12-4.285.164-10.183.212-20.373.043-30.556-.334-20-15-35.7-36.179-37.858a38.514,38.514,0,0,0-40.853,28.362,52.6,52.6,0,0,0-1.629,12.464c-.225,10.428-.075,20.865-.075,31.465H691.651c2.982-2.419,5.169-4.223,7.388-5.988,5.939-4.725,11.311-10.774,20.194-8.7a1.508,1.508,0,0,0,1.236-.3c.9-.974,2.284-2,2.375-3.1.095-1.149-1.093-3.449-1.714-3.447-5.237.016-11.586-1.336-15.49,1.1-9.554,5.967-18.027,13.682-26.8,20.862a6.669,6.669,0,0,0-2.175,4.375C675.682,619.3,675,644,673.954,668.68c-1.293,30.476-.4,61.081-5.317,91.355-1.042,6.41-.359,6.964,6.246,6.965q85.56,0,171.121,0c6.839,0,13.682.124,20.514-.094a7.58,7.58,0,0,0,4.906-1.955q9.026-9.764,17.553-19.984A8.68,8.68,0,0,0,891.016,739.544ZM739.091,551.7c1.483-16.046,16.606-27.457,33.329-26.765,15.238.631,29.069,14.093,29.693,29.617.466,11.593.092,23.221.092,35.284H738.86C738.86,576.918,737.935,564.214,739.091,551.7ZM676.305,759.37l2.47-18.56h47.946a4.115,4.115,0,0,0,4.115-4.115h0a4.115,4.115,0,0,0-4.115-4.115H679.385c1.576-45.293,3.131-89.989,4.695-134.934,12.942,0,159.549.027,172.713.027,1.485,44.87,2.971,89.761,4.465,134.907h-54.8a4.115,4.115,0,0,0-4.115,4.115h0a4.115,4.115,0,0,0,4.115,4.115h55.407c.594,6.2,1.171,12.221,1.778,18.56Zm205.784-18.06c-3.42,4.119-7.053,8.062-10.608,12.07l-1.262-.17c-.731-13.7-1.659-27.4-2.155-41.113-1.3-35.848-2.417-71.7-3.572-107.554-.349-10.841-.036-11.567,7.828-21.051.525,6.422,1.035,12.185,1.46,17.953q2.619,35.609,5.187,71.223,2.308,32.38,4.435,64.772A6.048,6.048,0,0,1,882.089,741.31Z" transform="translate(-668.243 -495.122)" fill="#18191d"/>
        <rect id="Rectangle_2" data-name="Rectangle 2" width="56.164" height="8.23" rx="4.115" transform="translate(70.266 237.457)" fill="#18191d"/>
      </g>
    </g>
  </g>
</svg>
