<svg id="img" xmlns="http://www.w3.org/2000/svg" width="468.168" height="476.449" viewBox="0 0 468.168 476.449">
  <g id="_15" data-name="15" transform="translate(49.745)">
    <ellipse id="Ellipse_1" data-name="Ellipse 1" cx="32.906" cy="36.875" rx="32.906" ry="36.875" transform="translate(306.619 345.066)" fill="#18191d"/>
    <path id="Path_17" data-name="Path 17" d="M307.9,279.871l34.415-10.756c-6.311-26.215-12.664-47.967-17.7-64.053-21.883-69.916-35.308-85.392-49.712-88.994a28.877,28.877,0,0,0-6.835-.85q.24,40.245.483,80.482Q288.229,237.783,307.9,279.871Z" transform="translate(0.963 103.143)" fill="#ffa492"/>
    <path id="Path_18" data-name="Path 18" d="M248.6,119.692c2.142,4.456,6.537,6.234,9.42,4.951,2.4-1.069,3.145-3.99,3.276-4.538Z" transform="translate(-59.33 117.128)" fill="#18191d"/>
    <path id="Path_19" data-name="Path 19" d="M318.888,175.984l-61.528,20.65q-8.785-38.661-17.57-77.318l48.684-16.338Q303.679,139.479,318.888,175.984Z" transform="translate(-86.595 64.883)" fill="#ffa492"/>
    <path id="Path_20" data-name="Path 20" d="M427.751,370.08a326.275,326.275,0,0,1-80.67,19.5,327.8,327.8,0,0,1-118.427-8.776V194.213c-2.539-6.114-6.881-19.329-2.154-33.155,7.335-21.462,33.674-36.088,64.431-32.615-.287-1.1-.573-2.2-.86-3.3l26.244,3.948q15.063-10.942,30.119-21.887,3.225,8.992,6.455,17.989c7.347-.92,52.325-5.962,71.693,20.86a42.6,42.6,0,0,1,4.89,8.829q-14.05,11.486-28.108,22.972Q414.559,273.965,427.751,370.08Z" transform="translate(-134.263 78.093)" fill="#18191d"/>
    <path id="Path_21" data-name="Path 21" d="M297.585,192.956a38.163,38.163,0,0,1-48.348-24.363l-17.66-53.409a68.411,68.411,0,0,1,72.532-24.342q8.834,26.7,17.66,53.409A38.567,38.567,0,0,1,297.585,192.956Z" transform="translate(-112.019 19.266)" fill="#ffa492"/>
    <path id="Path_22" data-name="Path 22" d="M271.873,105.119c2.191,6.634-.483,13.508-5.979,15.352s-11.726-2.038-13.921-8.672.483-13.508,5.98-15.352S269.678,98.485,271.873,105.119Z" transform="translate(-51.253 43.033)" fill="#ffa492"/>
    <g id="Group_21007" data-name="Group 21007" transform="translate(137.455 170.48)">
      <path id="Path_23" data-name="Path 23" d="M239.1,106.584q-1.333,0-2.662-.05a.517.517,0,0,1-.5-.532c.012-.289.254-.446.532-.5a75.265,75.265,0,0,0,19.581-1.881.531.531,0,0,1,.614.388.519.519,0,0,1-.385.619,76.879,76.879,0,0,1-17.185,1.956Z" transform="translate(-235.947 -103.613)" fill="#18191d"/>
    </g>
    <path id="Path_24" data-name="Path 24" d="M237.9,109.515a4.162,4.162,0,0,0,5.144,2.884,4.212,4.212,0,0,0,2.4-5.417,4,4,0,1,0-7.548,2.533Z" transform="translate(-93.199 67.799)" fill="#18191d"/>
    <g id="Group_21008" data-name="Group 21008" transform="translate(172.906 159.2)">
      <path id="Path_25" data-name="Path 25" d="M245.115,105.372a.516.516,0,0,1-.02-1.031,75.2,75.2,0,0,0,19.372-3.441.514.514,0,0,1,.307.982,77.2,77.2,0,0,1-8.375,2.145,77.905,77.905,0,0,1-11.263,1.345Z" transform="translate(-244.603 -100.879)" fill="#18191d"/>
    </g>
    <path id="Path_26" data-name="Path 26" d="M246.7,107.2a4.165,4.165,0,0,0,5.357,2.467,4.218,4.218,0,0,0,1.966-5.595,4.163,4.163,0,0,0-5.357-2.463A4.213,4.213,0,0,0,246.7,107.2Z" transform="translate(-66.359 59.694)" fill="#18191d"/>
    <path id="Path_27" data-name="Path 27" d="M259.435,107.554a8.281,8.281,0,0,0,.07-4.84c-.561-1.914-11.66-.536-14.568.07a22.042,22.042,0,0,0-7.728,3.09,7.387,7.387,0,0,0-2.506,2.236,6.739,6.739,0,0,0-1.012,3.614C234.116,111.948,250.666,108.239,259.435,107.554Z" transform="translate(-105.478 61)" fill="#18191d"/>
    <path id="Path_28" data-name="Path 28" d="M245.367,109.29a8.286,8.286,0,0,1-1.851-4.468c-.188-1.984,10.624-4.868,13.544-5.392a21.894,21.894,0,0,1,8.318-.033,7.29,7.29,0,0,1,3.149,1.139,6.685,6.685,0,0,1,2.277,2.975C270.493,103.877,253.759,106.638,245.367,109.29Z" transform="translate(-75.069 52.481)" fill="#18191d"/>
    <path id="Path_29" data-name="Path 29" d="M242.059,111.937a8.05,8.05,0,0,0,5.41.239,8.3,8.3,0,0,0,4.845-4.312Z" transform="translate(-79.572 80.159)" fill="#18191d"/>
    <g id="Group_21009" data-name="Group 21009" transform="translate(170.916 192.467)">
      <path id="Path_30" data-name="Path 30" d="M244.629,120.091a.516.516,0,0,1-.029-1.031,18.572,18.572,0,0,0,11.046-4.377,17.819,17.819,0,0,0,4.21-5.454.506.506,0,0,1,.688-.227.521.521,0,0,1,.225.693,18.772,18.772,0,0,1-4.456,5.768,19.588,19.588,0,0,1-11.656,4.629Z" transform="translate(-244.117 -108.942)" fill="#18191d"/>
    </g>
    <g id="Group_21010" data-name="Group 21010" transform="translate(181.579 197.042)">
      <path id="Path_31" data-name="Path 31" d="M247.23,116.971a.516.516,0,0,1-.315-.92q1.874-1.5,3.817-3.016,1.892-1.473,3.756-2.88a.514.514,0,0,1,.618.821q-1.861,1.411-3.747,2.876c-1.29,1.007-2.564,2.009-3.809,3A.492.492,0,0,1,247.23,116.971Z" transform="translate(-246.72 -110.051)" fill="#18191d"/>
    </g>
    <path id="Path_32" data-name="Path 32" d="M261.41,293.618l-55.368-24.165c22.116-41.052,36.053-74.425,45.1-98.978,6.266-17.011,13.22-38.019,33.129-48.977,12.594-6.935,25.749-7.3,34.849-6.5q2.021,38.407,4.046,76.818Q292.284,242.716,261.41,293.618Z" transform="translate(-191.064 101.509)" fill="#18191d"/>
    <path id="Path_33" data-name="Path 33" d="M370.1,266.169c-7.953,16.012-22.427,24.45-34.292,21.661-2.339-.549-7.691-2.269-12.823-8.66Q292.33,223.91,261.675,168.647l42-53.367c2.1,2.409,5.14,6.011,8.592,10.541,2.621,3.437,14.593,19.354,26.547,45.594C356.336,209.86,368.115,257.942,370.1,266.169Z" transform="translate(-18.849 103.337)" fill="#18191d"/>
    <g id="Group_21011" data-name="Group 21011" transform="translate(201.45 203.228)">
      <path id="Path_34" data-name="Path 34" d="M256.273,119.055a.506.506,0,0,1-.43-.231l-4.186-6.478a.513.513,0,1,1,.856-.565l4.186,6.478a.517.517,0,0,1-.147.714A.533.533,0,0,1,256.273,119.055Z" transform="translate(-251.572 -111.55)" fill="#b2b2b2"/>
    </g>
    <g id="Group_21012" data-name="Group 21012" transform="translate(143.464 207.755)">
      <path id="Path_35" data-name="Path 35" d="M237.925,140.115a.516.516,0,0,1-.176-1l70.992-26.442a.524.524,0,0,1,.655.305.514.514,0,0,1-.3.664L238.1,140.082A.513.513,0,0,1,237.925,140.115Z" transform="translate(-237.414 -112.647)" fill="#b2b2b2"/>
    </g>
    <g id="Group_21013" data-name="Group 21013" transform="translate(144.11 237.443)">
      <path id="Path_36" data-name="Path 36" d="M280.572,347.294a.517.517,0,0,1-.5-.421l-42.487-226.42a.514.514,0,0,1,.405-.6.5.5,0,0,1,.6.408l42.487,226.42a.518.518,0,0,1-.405.607Z" transform="translate(-237.572 -119.843)" fill="#b2b2b2"/>
    </g>
    <ellipse id="Ellipse_2" data-name="Ellipse 2" cx="3.088" cy="3.11" rx="3.088" ry="3.11" transform="translate(162.489 255.079)" fill="#fff"/>
    <path id="Path_37" data-name="Path 37" d="M260,123.62a3.088,3.088,0,1,1-3.088-3.111A3.1,3.1,0,0,1,260,123.62Z" transform="translate(-43.155 119.682)" fill="#fff"/>
    <path id="Path_38" data-name="Path 38" d="M251.767,141.392a3.088,3.088,0,1,1-3.088-3.111A3.1,3.1,0,0,1,251.767,141.392Z" transform="translate(-68.638 175.233)" fill="#fff"/>
    <ellipse id="Ellipse_3" data-name="Ellipse 3" cx="3.088" cy="3.11" rx="3.088" ry="3.11" transform="translate(225.133 298.627)" fill="#fff"/>
    <path id="Path_39" data-name="Path 39" d="M255.412,155.456a3.088,3.088,0,1,1-3.088-3.111A3.1,3.1,0,0,1,255.412,155.456Z" transform="translate(-57.355 219.195)" fill="#fff"/>
    <path id="Path_40" data-name="Path 40" d="M267.176,151.847a3.088,3.088,0,1,1-3.088-3.111A3.1,3.1,0,0,1,267.176,151.847Z" transform="translate(-20.939 207.914)" fill="#fff"/>
    <g id="Group_21014" data-name="Group 21014" transform="translate(270.39 283.592)">
      <path id="Path_41" data-name="Path 41" d="M274.089,185.384a.509.509,0,0,1-.508-.466L268.408,131.6a.51.51,0,0,1,.463-.561.479.479,0,0,1,.553.466l5.173,53.309a.508.508,0,0,1-.459.561Z" transform="translate(-268.405 -131.029)" fill="#b2b2b2"/>
    </g>
    <path id="Path_42" data-name="Path 42" d="M306.7,88.839c18.52,9.035,18.532,43.148,16.567,43.779-1.278.408-3.641-13.215-12.373-15.278-3.653-.866-8.187,1.539-17.107,6.387-10.513,5.714-12.172,8.078-19.356,10.405-6.659,2.158-13.347,2.752-13.769,1.518-.344-1.007,3.645-2.785,3.3-3.8-.41-1.217-6.643.664-13.319.986-9.281.446-20.6-2.055-21.174-5.85-.4-2.669,4.923-3.193,10.755-9.861,6.823-7.794,5.042-13.359,11.189-18.529,3.8-3.2,8.015-3.169,13.335-4.769C285.207,87.672,297.018,84.119,306.7,88.839Z" transform="translate(-118.62 13.888)" fill="#18191d"/>
    <path id="Path_43" data-name="Path 43" d="M339.819,151.06a89.968,89.968,0,0,1-29.963,12.476,91.52,91.52,0,0,1-49.691-3.462c-5.259-5.7-10.632-11.87-16.038-18.529-7.712-9.514-14.49-18.8-20.429-27.635q45.983-19.99,91.97-39.983,4.7,11.944,9.141,24.924C331.03,117.125,335.937,134.614,339.819,151.06Z" transform="translate(-136.409 -25.922)" fill="#fff"/>
    <path id="Path_44" data-name="Path 44" d="M247.345,111.924c-3.481,2.158-6.258.607-11.3.978-11,.809-23.238,10.1-24.2,18.529-1.38,12.109,20.31,24.478,36.463,29.256,9.924,2.933,8.167-.144,43.241.648,21.436.487,31.63,1.853,37.757-5.2,4.378-5.042,1.4-8.318,5.807-14.63,8.879-12.724,25.913-6.5,31.3-16.252,4.64-8.4-1.921-24.033-11.943-30.56-9.436-6.143-15.981-.326-25.167-6.824-9.952-7.039-6.451-16.813-14.846-22.432-13.6-9.106-36.446,4.291-39.043,5.855-5.689,3.42-16.6,9.989-20.977,22.316C251.629,101.552,252.689,108.611,247.345,111.924Z" transform="translate(-173.285 -62.292)" fill="#fff"/>
    <g id="Group_21015" data-name="Group 21015" transform="translate(100.654 90.726)">
      <path id="Path_45" data-name="Path 45" d="M246.512,101.379a35.8,35.8,0,0,1-19.327-5.97.515.515,0,0,1-.135-.714.5.5,0,0,1,.713-.136c2.162,1.485,13.659,8.71,27.53,4.481A32.639,32.639,0,0,0,273.5,84.533a.505.505,0,0,1,.7-.177.519.519,0,0,1,.18.705,33.7,33.7,0,0,1-18.795,14.968A31.015,31.015,0,0,1,246.512,101.379Z" transform="translate(-226.961 -84.282)" fill="#18191d"/>
    </g>
    <g id="Group_21016" data-name="Group 21016" transform="translate(158.955 58.005)">
      <path id="Path_46" data-name="Path 46" d="M241.707,100.135a.515.515,0,0,1-.1-1.019,36.274,36.274,0,0,0,26.728-22.44.51.51,0,0,1,.664-.289.519.519,0,0,1,.291.668A37.3,37.3,0,0,1,241.8,100.127Z" transform="translate(-241.196 -76.351)" fill="#18191d"/>
    </g>
    <g id="Group_21017" data-name="Group 21017" transform="translate(69.675 46.634)">
      <path id="Path_47" data-name="Path 47" d="M251.534,84.7a.514.514,0,0,1-.447-.264,19.252,19.252,0,0,0-9.633-8.656c-6.876-2.653-15.186-.648-21.195,5.091a.508.508,0,0,1-.721-.017.518.518,0,0,1,.016-.73c6.291-6.007,15.035-8.095,22.263-5.306a20.254,20.254,0,0,1,10.161,9.114.517.517,0,0,1-.2.7A.492.492,0,0,1,251.534,84.7Z" transform="translate(-219.397 -73.595)" fill="#18191d"/>
    </g>
    <g id="Group_21018" data-name="Group 21018" transform="translate(127.42 13.104)">
      <path id="Path_48" data-name="Path 48" d="M257,94.058c-.442-.136-.578-.433-.479-.7.786-2.1,3.035-9.506-.864-16.672C251.7,69.4,243,65.409,234.084,66.758a.5.5,0,0,1-.582-.433.516.516,0,0,1,.43-.586c9.354-1.411,18.455,2.793,22.624,10.451,4.1,7.554,1.745,15.331.922,17.531A.51.51,0,0,1,257,94.058Z" transform="translate(-233.497 -65.468)" fill="#18191d"/>
    </g>
    <g id="Group_21019" data-name="Group 21019" transform="translate(93.772 341.684)">
      <path id="Path_49" data-name="Path 49" d="M227.923,156.1a.513.513,0,0,1-.5-.408l-2.13-9.956a.515.515,0,0,1,.389-.615.521.521,0,0,1,.61.4l2.13,9.956a.521.521,0,0,1-.393.615A.471.471,0,0,1,227.923,156.1Z" transform="translate(-225.281 -145.109)" fill="#b2b2b2"/>
    </g>
    <g id="Group_21020" data-name="Group 21020" transform="translate(89.618 267.999)">
      <path id="Path_50" data-name="Path 50" d="M229.146,192.862a.515.515,0,0,1-.512-.479L224.268,127.8a.516.516,0,0,1,.475-.553.508.508,0,0,1,.545.479l4.366,64.585a.512.512,0,0,1-.475.549Z" transform="translate(-224.267 -127.249)" fill="#b2b2b2"/>
    </g>
    <g id="Group_21021" data-name="Group 21021" transform="translate(328.796 348.511)">
      <path id="Path_51" data-name="Path 51" d="M283.178,149.935a.516.516,0,0,1-.09-1.023l12.266-2.141a.5.5,0,0,1,.59.417.513.513,0,0,1-.414.6l-12.266,2.141Z" transform="translate(-282.666 -146.763)" fill="#b2b2b2"/>
    </g>
    <g id="Group_21022" data-name="Group 21022" transform="translate(322.424 336.154)">
      <path id="Path_52" data-name="Path 52" d="M281.621,158.224a.5.5,0,0,1-.311-.107.512.512,0,0,1-.09-.722l10.243-13.425a.5.5,0,0,1,.713-.091.512.512,0,0,1,.094.722l-10.243,13.425A.5.5,0,0,1,281.621,158.224Z" transform="translate(-281.11 -143.768)" fill="#b2b2b2"/>
    </g>
    <g id="Group_21023" data-name="Group 21023" transform="translate(110.312 215.689)">
      <path id="Path_53" data-name="Path 53" d="M233.724,124.137a.513.513,0,0,1-.463-.305l-3.895-8.532a.513.513,0,1,1,.934-.425l3.891,8.532a.515.515,0,0,1-.25.681A.505.505,0,0,1,233.724,124.137Z" transform="translate(-229.32 -114.57)" fill="#b2b2b2"/>
    </g>
    <g id="Group_21024" data-name="Group 21024" transform="translate(242.638 220.974)">
      <path id="Path_54" data-name="Path 54" d="M265.229,134.895a.511.511,0,0,1-.5-.429l-3.088-18.013a.512.512,0,0,1,.414-.594.5.5,0,0,1,.594.417l3.088,18.013a.516.516,0,0,1-.418.6Z" transform="translate(-261.629 -115.851)" fill="#b2b2b2"/>
    </g>
    <g id="Group_21025" data-name="Group 21025" transform="translate(254.469 236.295)">
      <path id="Path_55" data-name="Path 55" d="M265.46,123.976a.511.511,0,0,1-.508-.454l-.43-3.367a.515.515,0,0,1,.442-.578.5.5,0,0,1,.573.45l.43,3.367a.515.515,0,0,1-.442.578Z" transform="translate(-264.518 -119.565)" fill="#b2b2b2"/>
    </g>
    <ellipse id="Ellipse_4" data-name="Ellipse 4" cx="190.66" cy="15.368" rx="190.66" ry="15.368" transform="translate(1.222 445.713)" fill="#f5db8c"/>
    <g id="Group_21041" data-name="Group 21041" transform="translate(0 335.662)">
      <g id="Group_21027" data-name="Group 21027" transform="translate(93.053 86.722)">
        <path id="Rectangle_13653" data-name="Rectangle 13653" d="M0,0H71.637a0,0,0,0,1,0,0V41.9a4.583,4.583,0,0,1-4.583,4.583H4.582A4.582,4.582,0,0,1,0,41.9V0A0,0,0,0,1,0,0Z" transform="translate(48.081 3.721)" fill="#fff"/>
        <ellipse id="Ellipse_5" data-name="Ellipse 5" cx="83.899" cy="7.657" rx="83.899" ry="7.657" fill="#fff"/>
        <ellipse id="Ellipse_6" data-name="Ellipse 6" cx="51.819" cy="3.118" rx="51.819" ry="3.118" transform="translate(32.081 4.539)" fill="#ed8521"/>
        <g id="Group_21026" data-name="Group 21026" transform="translate(49.076 14.04)">
          <path id="Path_56" data-name="Path 56" d="M272.662,171.213a306.148,306.148,0,0,1-35.119-2.022.515.515,0,0,1-.451-.574.466.466,0,0,1,.565-.45,306.363,306.363,0,0,0,44.773,1.857c8.556-.276,17.222-.932,25.753-1.943a.5.5,0,0,1,.569.454.511.511,0,0,1-.446.569c-8.564,1.015-17.259,1.671-25.847,1.951Q277.574,171.211,272.662,171.213Z" transform="translate(-237.088 -168.072)" fill="#18191d"/>
        </g>
      </g>
      <path id="Path_57" data-name="Path 57" d="M293.757,152.367q1.032,12.625,2.064,25.258a204.487,204.487,0,0,0-24.778,9.634c-21.731,10.125-31.016,19.045-45.44,14.919a38.526,38.526,0,0,1-13.376-7.245,31.989,31.989,0,0,1-5.82-13.57c-1.716-10.273,2.363-18.636,4.419-22.217a68.011,68.011,0,0,1,15.1-4.241c23.357-3.684,36.524,7.443,56.674,1.844A59.017,59.017,0,0,0,293.757,152.367Z" transform="translate(-191.208 -116.398)" fill="#ffa492"/>
      <path id="Path_58" data-name="Path 58" d="M269.161,168.079q7.255-11.127,14.5-22.255a199.436,199.436,0,0,0,25.741,7.682c23.648,5.347,36.688,3.821,45.457,16.367a39.574,39.574,0,0,1,5.951,14.465,34.786,34.786,0,0,1-4.067,14.935,33.035,33.035,0,0,1-6.143,8.062c-6.094,5.887-15.449,6.919-23.042,3.189-1.212-.594-2.261-1.155-3.145-1.654C303.592,197.153,300.291,179.6,280.78,171.5A57.065,57.065,0,0,0,269.161,168.079Z" transform="translate(4.324 -136.851)" fill="#ffa492"/>
      <g id="Group_21028" data-name="Group 21028" transform="translate(97.883 0)">
        <path id="Path_59" data-name="Path 59" d="M299.268,238.353a1.027,1.027,0,0,1-.807-.392L226.5,145.316a1.044,1.044,0,0,1,.172-1.452,1.029,1.029,0,0,1,1.438.177l71.963,92.645a1.028,1.028,0,0,1-.807,1.667Z" transform="translate(-226.285 -143.649)" fill="#bfcad8"/>
      </g>
      <path id="Path_60" data-name="Path 60" d="M256.382,170.625a30.142,30.142,0,0,1,4.169,5.471,13.24,13.24,0,0,1-12.18,5.8c-.442-.714-1.048-1.737-1.724-2.991-1.728-3.206-7.442-13.809-5.074-16C243.608,161.02,251.451,165.492,256.382,170.625Z" transform="translate(-82.829 -84.833)" fill="#f5db8c"/>
      <path id="Path_61" data-name="Path 61" d="M221.745,159.314c1.806-1.407,6.135-3.012,17.308,2.678q6.825-6.424,13.646-12.852,19.554,2.166,39.109,4.336a5.331,5.331,0,0,1,5.562,4.3,5.423,5.423,0,0,1-1.97,4.444c-3.477.367-7.872.714-12.958.838-10.153.252-20.15-.454-20.142-.813,0-.309,6.27-.594,33.1-.5q3.207,2.271,2.99,4.151-.7,6.152-38.113,8.058c15.911-3.14,34.038-5.978,35.185-2.476.5,1.527-2.38,3.763-4.866,5.665-11.783,9-27.8,12.972-28.554,11.065-.811-2.03,15.133-12.27,26.408-9.514,1.11.272,4.419.949,5,3,.3,1.081-.049,2.872-3.711,6.094-9.117,8.021-21.9,10.075-23.021,10.24a63.953,63.953,0,0,1-27.965-2.166q-4.2,4.332-8.392,8.668C227.954,199.438,212.632,166.423,221.745,159.314Z" transform="translate(-151.326 -126.485)" fill="#fff"/>
      <path id="Path_62" data-name="Path 62" d="M246.892,158.092c-2.674-.289-15.682-1.465-21.62,6.015-7.139,8.986-3.2,29.376,15.813,44.047a34.719,34.719,0,0,1-34.37-17.716,35.265,35.265,0,0,1,3.711-39.335h24.365Q240.84,154.6,246.892,158.092Z" transform="translate(-202.385 -120.349)" fill="#18191d"/>
      <g id="Group_21029" data-name="Group 21029" transform="translate(115.954 34.743)">
        <path id="Path_63" data-name="Path 63" d="M258.813,153.1h-27.6a.516.516,0,0,1,0-1.031h27.6a.516.516,0,0,1,0,1.031Z" transform="translate(-230.697 -152.07)" fill="#18191d"/>
      </g>
      <g id="Group_21030" data-name="Group 21030" transform="translate(119.828 44.484)">
        <path id="Path_64" data-name="Path 64" d="M255.95,155.463h-23.8a.516.516,0,0,1,0-1.032h23.8a.516.516,0,0,1,0,1.032Z" transform="translate(-231.643 -154.431)" fill="#18191d"/>
      </g>
      <g id="Group_21031" data-name="Group 21031" transform="translate(118.853 52.794)">
        <path id="Path_65" data-name="Path 65" d="M231.917,158.38a.517.517,0,0,1-.512-.487.524.524,0,0,1,.483-.545l16.087-.9a.529.529,0,0,1,.541.491.517.517,0,0,1-.483.54l-16.087.9Z" transform="translate(-231.405 -156.445)" fill="#18191d"/>
      </g>
      <g id="Group_21038" data-name="Group 21038" transform="translate(176.362 4.567)">
        <rect id="Rectangle_13654" data-name="Rectangle 13654" width="59.76" height="2.758" rx="0.135" transform="matrix(0.949, -0.316, 0.316, 0.949, 27.418, 52.008)" fill="#f5db8c"/>
        <path id="Path_66" data-name="Path 66" d="M301.974,147.4a46.85,46.85,0,0,0-24.508,5.7,40.215,40.215,0,0,0-16.3,16.334c-2.945,5.739-2.285,7.109-1.982,7.5,1.483,1.9,6.631,0,7.8-.433,4.108-1.506,6.266-3.734,9.027-5.978a55.292,55.292,0,0,1,12.111-7.451Z" transform="translate(-203.811 -136.6)" fill="#fff"/>
        <path id="Path_67" data-name="Path 67" d="M255.345,185.279c1.282-2.245,7.028-.38,22.149,1.044,5.492.516,15.068,1.419,18.193-3.416a6.089,6.089,0,0,0,1.04-3.705c-.369-4.658-7.077-5.97-7.073-9.118,0-2.236,3.4-3.647,7.827-5.982,8.334-4.4,4.612-3.8,16.87-10.822,10.874-6.234,16.345-9.291,19.327-8.359,7.433,2.331,9.792,15.129,9.674,22.448-.033,2.022-.242,15.162-7.794,19.016-4.874,2.488-8.564-1.064-13.122,2.059-4.259,2.917-2.633,7.109-6.856,10.983-3.145,2.884-5.82,2.253-15.084,3.7-14.539,2.273-14.941,5.525-21.3,4.274-6.84-1.349-11.443-5.7-15.932-10.067C260.837,194.983,253.744,188.077,255.345,185.279Z" transform="translate(-215.527 -144.756)" fill="#fff"/>
        <g id="Group_21032" data-name="Group 21032" transform="translate(39.023 42.61)">
          <path id="Path_68" data-name="Path 68" d="M275.986,171.638a.49.49,0,0,1-.307-.107l-20.5-15.517a.519.519,0,0,1-.1-.722.509.509,0,0,1,.717-.1l20.5,15.521a.519.519,0,0,1,.1.722A.509.509,0,0,1,275.986,171.638Z" transform="translate(-254.975 -155.084)" fill="#18191d"/>
        </g>
        <g id="Group_21033" data-name="Group 21033" transform="translate(62.352 58.132)">
          <path id="Path_69" data-name="Path 69" d="M263.161,159.877h-1.978a.516.516,0,0,1,0-1.031h1.978a.516.516,0,0,1,0,1.031Z" transform="translate(-260.671 -158.846)" fill="#18191d"/>
        </g>
        <g id="Group_21034" data-name="Group 21034" transform="translate(67.721 58.132)">
          <path id="Path_70" data-name="Path 70" d="M277.59,159.877h-15.1a.516.516,0,0,1,0-1.031h15.1a.516.516,0,0,1,0,1.031Z" transform="translate(-261.982 -158.846)" fill="#18191d"/>
        </g>
        <g id="Group_21035" data-name="Group 21035" transform="translate(100.879 36.397)">
          <path id="Path_71" data-name="Path 71" d="M270.59,163.864a.576.576,0,0,1-.242-.058.519.519,0,0,1-.209-.7l4.878-9.258a.513.513,0,1,1,.905.483l-4.882,9.258A.506.506,0,0,1,270.59,163.864Z" transform="translate(-270.078 -153.578)" fill="#18191d"/>
        </g>
        <g id="Group_21036" data-name="Group 21036" transform="translate(78.045 24.284)">
          <path id="Path_72" data-name="Path 72" d="M265.016,155.952a.511.511,0,0,1-.483-.343.524.524,0,0,1,.311-.664l12.016-4.274a.518.518,0,0,1,.344.978l-12.016,4.274A.5.5,0,0,1,265.016,155.952Z" transform="translate(-264.503 -150.642)" fill="#18191d"/>
        </g>
        <g id="Group_21037" data-name="Group 21037" transform="translate(54.856 39.824)">
          <path id="Path_73" data-name="Path 73" d="M268.827,159.275c-.192-.037-9.666-3.878-9.666-3.878a.516.516,0,0,1-.283-.672.528.528,0,0,1,.668-.285l9.473,3.841a.516.516,0,0,1,.283.672A.5.5,0,0,1,268.827,159.275Z" transform="translate(-258.841 -154.409)" fill="#18191d"/>
        </g>
        <path id="Path_74" data-name="Path 74" d="M292.617,154.18c.315,1.267-3.211,3.16-4.476,3.845-12.307,6.618-28.218,3.957-28.231,2.8,0-.289.987-.215,4.431-1.143,9.006-2.43,10.579-5.2,16.964-6.457C286.4,152.228,292.236,152.645,292.617,154.18Z" transform="translate(-200.675 -119.973)" fill="#f5db8c"/>
        <path id="Path_75" data-name="Path 75" d="M277.545,157.737c.975,2.174-5.8,9.3-14.167,10.616-9.092,1.436-18.332-4.254-17.918-6.663.135-.776,1.257-1.164,15.838-2.991C275.857,156.87,277.193,156.949,277.545,157.737Z" transform="translate(-245.447 -105.834)" fill="#f5db8c"/>
      </g>
      <g id="Group_21039" data-name="Group 21039" transform="translate(25.468 28.612)">
        <path id="Path_76" data-name="Path 76" d="M224.685,157.062c-.168-.029-15.739-5.475-15.739-5.475a.518.518,0,0,1-.315-.656.512.512,0,0,1,.651-.318l15.571,5.446a.52.52,0,0,1,.315.656A.513.513,0,0,1,224.685,157.062Z" transform="translate(-208.603 -150.584)" fill="#b2b2b2"/>
      </g>
      <g id="Group_21040" data-name="Group 21040" transform="translate(16.886 34.743)">
        <path id="Path_77" data-name="Path 77" d="M207.02,153.72a.516.516,0,0,1-.02-1.031l15.166-.619a.541.541,0,0,1,.532.5.512.512,0,0,1-.491.536l-15.166.619Z" transform="translate(-206.508 -152.07)" fill="#b2b2b2"/>
      </g>
    </g>
    <g id="Group_21045" data-name="Group 21045" transform="translate(314.605 292.991)">
      <rect id="Rectangle_13655" data-name="Rectangle 13655" width="8.712" height="25.843" transform="translate(17.37)" fill="#f5db8c"/>
      <rect id="Rectangle_13656" data-name="Rectangle 13656" width="18.071" height="25.292" transform="translate(12.691 37.61)" fill="#dbc171"/>
      <rect id="Rectangle_13657" data-name="Rectangle 13657" width="14.844" height="22.613" transform="translate(14.304 18.616)" fill="#dbc171"/>
      <path id="Path_78" data-name="Path 78" d="M322.655,259.6a75.072,75.072,0,0,1-43.454,0V169.236a21.728,21.728,0,1,1,43.454,0Z" transform="translate(-279.201 -89.429)" fill="#dbc171"/>
      <g id="Group_21042" data-name="Group 21042" transform="translate(15.42 36.704)">
        <path id="Path_79" data-name="Path 79" d="M289.273,143.234h-5.8a.516.516,0,0,1,0-1.031h5.8a.516.516,0,0,1,0,1.031Z" transform="translate(-282.966 -142.203)" fill="#18191d"/>
      </g>
      <g id="Group_21043" data-name="Group 21043" transform="translate(16.857 58.975)">
        <path id="Path_80" data-name="Path 80" d="M290.943,148.632h-7.114a.516.516,0,0,1,0-1.031h7.114a.516.516,0,0,1,0,1.031Z" transform="translate(-283.317 -147.601)" fill="#18191d"/>
      </g>
      <g id="Group_21044" data-name="Group 21044" transform="translate(10.579 39.956)">
        <path id="Path_81" data-name="Path 81" d="M298.756,144.022H282.3a.516.516,0,0,1,0-1.031h16.46a.516.516,0,0,1,0,1.031Z" transform="translate(-281.784 -142.991)" fill="#18191d"/>
      </g>
      <ellipse id="Ellipse_7" data-name="Ellipse 7" cx="2.689" cy="21.888" rx="2.689" ry="21.888" transform="translate(34.109 78.938)" fill="#fff"/>
    </g>
  </g>
  <g id="Group_21050" data-name="Group 21050" transform="translate(376.186 137.048)">
    <g id="Group_21046" data-name="Group 21046" transform="translate(26.347 29.567)">
      <path id="Path_82" data-name="Path 82" d="M354.16,197.751H300.786l-12.262-95.075H317.16c13.659,0,26.171,11.156,27.948,24.916Z" transform="translate(-288.524 -102.676)" fill="#18191d"/>
    </g>
    <g id="Group_21047" data-name="Group 21047" transform="translate(0 29.567)">
      <path id="Path_83" data-name="Path 83" d="M352.2,102.676H315.257c-9.977,0-19.392,8.144-21.031,18.195l-12.1,74.153a2.25,2.25,0,0,0,2.265,2.727h52.3a3.329,3.329,0,0,0,3.154-2.727L354.464,105.4A2.252,2.252,0,0,0,352.2,102.676Zm-24.34,21.537c.463-2.834,2.13-5.132,3.723-5.132s2.511,2.3,2.048,5.132-2.13,5.132-3.723,5.132S327.4,127.047,327.859,124.213Zm-2.461,15.08c.463-2.834,2.13-5.133,3.723-5.133s2.511,2.3,2.048,5.133-2.13,5.132-3.723,5.132S324.935,142.127,325.4,139.293Zm3.444,14.263c-.463,2.834-2.13,5.132-3.723,5.132s-2.511-2.3-2.048-5.132,2.13-5.133,3.723-5.133S329.3,150.721,328.842,153.555Zm-9.911-29.343c.463-2.834,2.13-5.132,3.723-5.132s2.511,2.3,2.048,5.132-2.13,5.132-3.723,5.132S318.468,127.047,318.931,124.213Zm-2.462,15.08c.463-2.834,2.13-5.133,3.723-5.133s2.51,2.3,2.048,5.133-2.13,5.132-3.723,5.132S316.006,142.127,316.469,139.293Zm3.444,14.263c-.463,2.834-2.13,5.132-3.723,5.132s-2.511-2.3-2.048-5.132,2.13-5.133,3.723-5.133S320.376,150.721,319.913,153.555Zm-9.731-29.343c.463-2.834,2.13-5.132,3.723-5.132s2.51,2.3,2.048,5.132-2.13,5.132-3.723,5.132S309.72,127.047,310.182,124.213Zm-2.462,15.08c.463-2.834,2.13-5.133,3.727-5.133s2.511,2.3,2.048,5.133-2.13,5.132-3.723,5.132S307.262,142.127,307.721,139.293Zm1.4,9.13c1.593,0,2.511,2.3,2.048,5.133s-2.126,5.132-3.723,5.132-2.511-2.3-2.048-5.132S307.524,148.423,309.118,148.423Zm-8.4-24.21c.463-2.834,2.13-5.132,3.723-5.132s2.511,2.3,2.048,5.132-2.13,5.132-3.723,5.132S300.251,127.047,300.713,124.213Zm-2.462,15.08c.463-2.834,2.13-5.133,3.723-5.133s2.515,2.3,2.052,5.133-2.13,5.132-3.723,5.132S297.793,142.127,298.252,139.293Zm-1.356,43.7c-.463,2.834-2.13,5.133-3.723,5.133s-2.511-2.3-2.048-5.133,2.13-5.132,3.723-5.132S297.359,180.154,296.9,182.989Zm2.343-14.354c-.463,2.834-2.13,5.132-3.723,5.132s-2.51-2.3-2.048-5.132,2.126-5.133,3.723-5.133S299.7,165.8,299.239,168.635Zm-1.266-9.947c-1.593,0-2.511-2.3-2.048-5.132s2.13-5.133,3.723-5.133,2.511,2.3,2.048,5.133S299.571,158.688,297.973,158.688Zm8.392,24.3c-.463,2.834-2.13,5.133-3.723,5.133s-2.511-2.3-2.048-5.133,2.13-5.132,3.723-5.132S306.828,180.154,306.365,182.989Zm2.343-14.354c-.463,2.834-2.13,5.132-3.723,5.132s-2.511-2.3-2.048-5.132,2.126-5.133,3.723-5.133S309.171,165.8,308.708,168.635Zm6.405,14.354c-.463,2.834-2.13,5.133-3.723,5.133s-2.511-2.3-2.048-5.133,2.13-5.132,3.723-5.132S315.576,180.154,315.113,182.989Zm2.343-14.354c-.463,2.834-2.13,5.132-3.723,5.132s-2.515-2.3-2.052-5.132,2.13-5.133,3.723-5.133S317.919,165.8,317.456,168.635Zm6.586,14.354c-.463,2.834-2.13,5.133-3.723,5.133s-2.51-2.3-2.052-5.133,2.13-5.132,3.727-5.132S324.5,180.154,324.042,182.989Zm2.339-14.354c-.459,2.834-2.126,5.132-3.723,5.132s-2.511-2.3-2.048-5.132,2.13-5.133,3.723-5.133S326.843,165.8,326.38,168.635Zm6.045,14.354c-.459,2.834-2.126,5.133-3.723,5.133s-2.51-2.3-2.048-5.133,2.13-5.132,3.723-5.132S332.888,180.154,332.425,182.989Zm2.343-14.354c-.463,2.834-2.13,5.132-3.723,5.132s-2.511-2.3-2.048-5.132,2.13-5.133,3.723-5.133S335.231,165.8,334.768,168.635Zm2.461-15.08c-.463,2.834-2.13,5.132-3.723,5.132s-2.51-2.3-2.048-5.132,2.13-5.133,3.723-5.133S337.692,150.721,337.229,153.555Zm2.326-14.263c-.463,2.834-2.13,5.132-3.723,5.132s-2.511-2.3-2.048-5.132,2.13-5.133,3.723-5.133S340.018,136.458,339.556,139.293Zm2.461-15.08c-.463,2.834-2.13,5.132-3.723,5.132s-2.511-2.3-2.048-5.132,2.126-5.132,3.723-5.132S342.48,121.378,342.017,124.213Z" transform="translate(-282.091 -102.676)" fill="#fff"/>
    </g>
    <g id="Group_21048" data-name="Group 21048" transform="translate(19.36 28.301)">
      <path id="Path_84" data-name="Path 84" d="M340.642,110.736c-6.864.4-14.154.594-21.829.491a305.165,305.165,0,0,1-31.995-2.108q1.911-3.373,3.825-6.75c7.126.726,14.92,1.209,23.3,1.267a246.76,246.76,0,0,0,26.7-1.267Z" transform="translate(-286.818 -102.369)" fill="#ed8521"/>
    </g>
    <g id="Group_21049" data-name="Group 21049" transform="translate(22.652)">
      <path id="Path_85" data-name="Path 85" d="M288.978,126.372c-3.506-10.694-.045-22.085,8.408-27.7,12.553-8.326,26.982,2.282,28.6,3.523,10.653,8.243,11.414,21.281,11.459,23.814l-3.276.058c-.037-2.265-.717-13.929-10.182-21.252-.557-.433-13.962-10.583-24.79-3.383-7.11,4.716-10.1,14.77-7.1,23.9Z" transform="translate(-287.622 -95.51)" fill="#ed8521"/>
    </g>
  </g>
  <g id="Group_21052" data-name="Group 21052" transform="translate(279.697 10.288)">
    <ellipse id="Ellipse_8" data-name="Ellipse 8" cx="50.241" cy="53.313" rx="50.241" ry="53.313" transform="translate(0 80.834)" fill="#18191d"/>
    <g id="Group_21051" data-name="Group 21051" transform="translate(17.064 93.788)">
      <path id="Path_86" data-name="Path 86" d="M300.758,168.235c-20.986,0-38.06-18.1-38.06-40.359s17.074-40.359,38.06-40.359,38.06,18.1,38.06,40.359S321.744,168.235,300.758,168.235Zm0-79.686c-20.42,0-37.036,17.642-37.036,39.327S280.338,167.2,300.758,167.2s37.036-17.642,37.036-39.327S321.178,88.549,300.758,88.549Z" transform="translate(-262.698 -87.518)" fill="#b2b2b2"/>
    </g>
    <rect id="Rectangle_13658" data-name="Rectangle 13658" width="8.853" height="76.855" rx="0.593" transform="translate(48.614 11.025)" fill="#18191d"/>
    <path id="Path_87" data-name="Path 87" d="M286.1,83.806c0,10.5-3.789,19.016-8.462,19.016s-8.461-8.516-8.461-19.016,3.788-19.02,8.461-19.02S286.1,73.3,286.1,83.806Z" transform="translate(-225.584 -64.786)" fill="#18191d"/>
  </g>
  <g id="Group_21053" data-name="Group 21053" transform="translate(365.208 7.557)">
    <ellipse id="Ellipse_9" data-name="Ellipse 9" cx="40.532" cy="47.802" rx="40.532" ry="47.802" transform="translate(0 12.359)" fill="#f5db8c"/>
    <ellipse id="Ellipse_10" data-name="Ellipse 10" cx="31.738" cy="33.736" rx="31.738" ry="33.736" transform="translate(13.721 23.127)" fill="#18191d"/>
    <ellipse id="Ellipse_11" data-name="Ellipse 11" cx="3.522" cy="9.93" rx="3.522" ry="9.93" transform="translate(34.631)" fill="#f5db8c"/>
    <path id="Path_88" data-name="Path 88" d="M296.351,97.816c0,5.483-1.577,9.931-3.522,9.931s-3.522-4.448-3.522-9.931,1.577-9.931,3.522-9.931S296.351,92.333,296.351,97.816Z" transform="translate(-248.776 10.148)" fill="#f5db8c"/>
  </g>
  <g id="Group_21054" data-name="Group 21054" transform="translate(0 31.252)">
    <rect id="Rectangle_13659" data-name="Rectangle 13659" width="6.169" height="153.853" rx="0.393" transform="translate(34.338 8.435)" fill="#f5db8c"/>
    <path id="Path_89" data-name="Path 89" d="M231.715,121.555c0,8.429-9.285,15.261-20.74,15.261s-20.736-6.832-20.736-15.261,9.285-15.257,20.736-15.257S231.715,113.13,231.715,121.555Z" transform="translate(-190.239 44.008)" fill="#f5db8c"/>
    <rect id="Rectangle_13660" data-name="Rectangle 13660" width="10.795" height="69.698" rx="0.687" transform="translate(30.74)" fill="#18191d"/>
  </g>
  <g id="Group_21055" data-name="Group 21055" transform="translate(51.231 92.384)">
    <rect id="Rectangle_13661" data-name="Rectangle 13661" width="7.064" height="166.572" rx="0.222" transform="translate(17.731)" fill="#18191d"/>
    <path id="Path_90" data-name="Path 90" d="M232.392,157.969H202.748L214.8,122.433h17.59Z" transform="translate(-202.748 33.311)" fill="#18191d"/>
  </g>
</svg>
