<svg id="icons_Q2" data-name="icons Q2" xmlns="http://www.w3.org/2000/svg" width="17.018" height="18.809" viewBox="0 0 17.018 18.809">
  <path id="Path_4012" data-name="Path 4012" d="M22.017,5.6a1.03,1.03,0,0,1-.269.717.761.761,0,0,1-.627.269H15.748a.9.9,0,0,1-.9-.9v-.9H12.165v.9a.9.9,0,0,1-.9.9H5.94A.94.94,0,0,1,5,5.777a1.03,1.03,0,0,1,.269-.717A.761.761,0,0,1,5.9,4.791h4.478V3.9a.9.9,0,0,1,.9-.9h4.478a.9.9,0,0,1,.9.9v.9h4.434A.94.94,0,0,1,22.017,5.6Z" transform="translate(-4.999 -3)" fill="#f3eddb"/>
  <path id="Path_4013" data-name="Path 4013" d="M20.659,15.806,19.584,26.644H12.061L10.986,15.806a.9.9,0,0,0-.9-.806h0a.9.9,0,0,0-.9.985l1.164,11.644a.9.9,0,0,0,.9.806H20.39a.9.9,0,0,0,.9-.806L22.45,15.985a.9.9,0,0,0-.9-.985h0A.9.9,0,0,0,20.659,15.806Z" transform="translate(-7.313 -9.626)" fill="#f3eddb"/>
</svg>
