<svg id="icons_Q2" data-name="icons Q2" xmlns="http://www.w3.org/2000/svg" width="16.258" height="16.258" viewBox="0 0 16.258 16.258">
  <path id="Path_4007" data-name="Path 4007" d="M20.008,10,14.279,4.235a.772.772,0,0,0-1.138,0l-8.9,8.9A.813.813,0,0,0,4,13.7V19.43a.813.813,0,0,0,.813.813h5.729A.813.813,0,0,0,11.11,20l8.9-8.857a.772.772,0,0,0,0-1.138Zm-9.792,8.613H5.625V14.026L10.7,8.988l4.55,4.591Zm6.216-6.176L11.841,7.851l1.869-1.91L18.3,10.573Z" transform="translate(-4 -3.985)" fill="#18191d"/>
</svg>
