<svg xmlns="http://www.w3.org/2000/svg" width="121.751" height="119.838" viewBox="0 0 121.751 119.838">
  <path id="Path_255" data-name="Path 255" d="M149.753,357.5l.346-.138c2.637-1.054,2.519-4.223,2.513-4.358l-.011-.225-.163-.156c-.194-.187-19.64-18.876-38.641-37.011l-3.1-2.959c-1.473-2.511-2.955-5.021-4.428-7.5-4.976-8.364-9.359-16.294-12.881-22.663-7.615-13.778-9.221-16.426-10.547-15.775a.714.714,0,0,0-.366.443c-.594,1.94,8.8,19.718,17.537,35.35-18.366-17.319-23.142-20.96-24.6-20.96H75.38a.816.816,0,0,0-.585.252c-.914.98,1.354,3.585,27.486,28.976l5.412,5.263c4.373,7.679,8.607,15.3,12.4,22.128,6.379,11.479,10.989,19.773,12.539,21.695l.217.267.336-.068a3.363,3.363,0,0,0,2.7-3.1l.007-.162-.077-.14c-.1-.189-7.41-13.35-16.643-29.412,15.963,15.657,30.17,29.836,30.32,29.986Zm-46.684-47.535c-11.911-11.573-24.188-23.5-26.823-26.933,4.131,2.442,19.456,16.95,25.618,22.787.707,1.251,1.427,2.519,2.155,3.795.525.921,1.04,1.823,1.543,2.7l.1.171Zm31.67,47.1a2.168,2.168,0,0,1-1.452,1.786c-1.32-1.818-4.4-7.223-8.407-14.411q.328-1.985.522-3.984C130.528,349.494,134.154,356.01,134.739,357.065ZM123.61,337.3q.685,1.2,1.34,2.36-.173,2.026-.487,4.033-.618-1.108-1.261-2.264A27.988,27.988,0,0,0,123.61,337.3Zm-.516-.908a27.559,27.559,0,0,1-.311,4.281l-1.7-3.053c-3.239-5.828-6.8-12.229-10.487-18.751l.018.017-1.98-3.476-.019-.032q-1.032-1.812-2.073-3.627-.871-1.517-1.724-3.015c-.1-.169-.193-.339-.289-.507q-.834-1.465-1.65-2.911c-10.744-19.022-17.98-33.281-19.152-37.023,1.518,1.813,4.872,7.877,8.669,14.747,3.525,6.378,7.913,14.315,12.9,22.7,1.625,2.732,3.26,5.5,4.883,8.275q.328.562.662,1.129C115.187,322.576,119.422,329.946,123.093,336.391Zm-6.021-12.779c-.173-.3-.344-.593-.516-.891l-1.282-2.213q-.33-.571-.659-1.136-.875-1.5-1.758-3.021l-.09-.155.249.238c7.674,7.323,15.414,14.732,21.936,20.982a33.972,33.972,0,0,1,1.408,5.188C130.773,337.075,124.018,330.411,117.072,323.612Zm19.89,19.587a34.527,34.527,0,0,0-1.29-5.094l2,1.917q.439,2.376.877,4.749C138.034,344.26,137.5,343.734,136.962,343.2Zm1.308-2.6c7.113,6.821,12.219,11.727,13.21,12.679a3.438,3.438,0,0,1-1.473,2.881c-1.078-1.076-5.151-5.133-10.866-10.8a.161.161,0,0,0,0-.042Z" transform="translate(-252.224 -54.476) rotate(-50)" fill="#f3eddb"/>
</svg>
