<svg xmlns="http://www.w3.org/2000/svg" width="31.627" height="40.099" viewBox="0 0 31.627 40.099">
  <g id="Group_29" data-name="Group 29" transform="translate(0)">
    <path id="Path_283" data-name="Path 283" d="M307.293,322.062c0-.075-.013-.151-.02-.226s-.011-.121-.016-.182a.675.675,0,0,0-.03-.186.561.561,0,0,0-.051-.146c-1.476-4.371-8.033-4.451-11.722-3.681a37.284,37.284,0,0,0-13.513,6.154c-1.869,1.319-4.38,3.415-4.6,5.714a.4.4,0,0,0-.054.153,126.7,126.7,0,0,0-1.039,22.1.481.481,0,0,0,.1.447c3.137,4.808,9.432,6.092,14.7,4.524a24.283,24.283,0,0,0,8.368-4.82,27.164,27.164,0,0,0,6.593-7.108.425.425,0,0,0,.082-.157C308.209,337.267,307.976,329.633,307.293,322.062Zm-27.829,5.8a13.061,13.061,0,0,1,3-2.724,39.32,39.32,0,0,1,10.749-5.548,19.292,19.292,0,0,1,6.6-1.164c2.117.07,5.411.663,6.154,2.969.021.23.04.459.061.689-.049,2.026-1.981,3.924-3.31,5.208a26.875,26.875,0,0,1-6.46,4.621c-4.6,2.355-10.871,4.341-15.531,1.074a4.356,4.356,0,0,1-2.065-2.383A3.787,3.787,0,0,1,279.464,327.864ZM304.84,344a24.988,24.988,0,0,1-5.708,6.331,27.5,27.5,0,0,1-7.113,4.667c-4.792,1.976-11.313,1.728-14.471-2.941a125.224,125.224,0,0,1,.764-19.809c.044.051.083.1.13.152,4.244,4.639,10.963,3.887,16.228,1.724a28.783,28.783,0,0,0,8.861-5.656,17.272,17.272,0,0,0,2.751-3.1C306.689,331.627,306.582,337.894,304.84,344Z" transform="translate(-276.148 -317.269)" fill="#f3eddb"/>
    <path id="Path_284" data-name="Path 284" d="M283.266,330.118a.983.983,0,0,0,1.44-1c-.034-.741-.707-1.7-1.552-1.375-.506.194.046.925.448.771.134-.051.121-.045.179.1a.874.874,0,0,1,.062.388c-.012.152-.162.551-.381.435-.176-.094-.447-.079-.519.136S283.09,330.025,283.266,330.118Z" transform="translate(-276.148 -317.269)" fill="#f3eddb"/>
    <path id="Path_285" data-name="Path 285" d="M285.869,327.126c.406-.28-.263-.946-.623-.7l-.085.039,0-.04a.26.26,0,0,1,.09-.141c.391-.3-.281-.965-.624-.7a.881.881,0,0,0-.115,1.275A1.049,1.049,0,0,0,285.869,327.126Z" transform="translate(-276.148 -317.269)" fill="#f3eddb"/>
    <path id="Path_286" data-name="Path 286" d="M286.917,324.567a1.5,1.5,0,0,1,.271-.151l.025-.006a.759.759,0,0,1,.022.1c0,.053-.036.2-.031.2-.588.033-.2.817.246.792.73-.041.766-.884.48-1.4a1.089,1.089,0,0,0-1.637-.229C285.881,324.136,286.549,324.8,286.917,324.567Z" transform="translate(-276.148 -317.269)" fill="#f3eddb"/>
    <path id="Path_287" data-name="Path 287" d="M280.759,330.164c.3.12.716.058.787-.31.056-.288-.3-.58-.57-.6a.886.886,0,0,1,.058-.269.841.841,0,0,1,.47-.48c.508-.188-.044-.92-.448-.771a1.409,1.409,0,0,0-.929,1.546A1.13,1.13,0,0,0,280.759,330.164Z" transform="translate(-276.148 -317.269)" fill="#f3eddb"/>
    <path id="Path_288" data-name="Path 288" d="M282.326,333.429a1.625,1.625,0,0,0,1.277.218c.538-.141.63-.605.209-.971a.431.431,0,0,0-.586-.012.258.258,0,0,0-.049.221,1.342,1.342,0,0,1-.315.013.355.355,0,0,1-.282-.152.517.517,0,0,1,.273-.67c.432-.2-.228-.885-.623-.7C281.349,331.8,281.647,332.992,282.326,333.429Z" transform="translate(-276.148 -317.269)" fill="#f3eddb"/>
    <path id="Path_289" data-name="Path 289" d="M285.822,330.861c.1.238.3.284.456.447a.521.521,0,0,1,.093.544.7.7,0,0,1-.2.3l-.013.008a.65.65,0,0,0-.388-.178.5.5,0,0,0-.391.119.327.327,0,0,0-.058.44,1.021,1.021,0,0,0,1.78-.045,1.284,1.284,0,0,0-.353-1.637.569.569,0,0,0-.223-.359l-.037-.027a.5.5,0,0,0-.518-.076A.346.346,0,0,0,285.822,330.861Z" transform="translate(-276.148 -317.269)" fill="#f3eddb"/>
    <path id="Path_290" data-name="Path 290" d="M287.406,327.407c.107.277.387.447.5.7.1.084.1.163-.007.235a1.255,1.255,0,0,1-.269.078.941.941,0,0,1-.531-.075c-.571-.251-.685.464-.2.68s1.467.367,1.852-.173a.794.794,0,0,0-.039-.816,2.717,2.717,0,0,0-.335-.449c-.03-.037-.316-.426-.133-.44.587-.044.2-.825-.246-.791A.71.71,0,0,0,287.406,327.407Z" transform="translate(-276.148 -317.269)" fill="#f3eddb"/>
    <path id="Path_291" data-name="Path 291" d="M290.315,332.179c-.146.078-.386-.053-.536-.083a1.217,1.217,0,0,0-.566,0,1.438,1.438,0,0,0-.783.734c-.237.4.528.959.759.572.194-.323.364-.608.774-.5a1.251,1.251,0,0,0,.976-.018C291.365,332.65,290.7,331.974,290.315,332.179Z" transform="translate(-276.148 -317.269)" fill="#f3eddb"/>
    <path id="Path_292" data-name="Path 292" d="M290.592,330.021c-.017.005-.106.019-.187.034a.659.659,0,0,1,.449-.364c.511-.176-.041-.911-.449-.771-.517.178-1.007.583-.854,1.192a1.1,1.1,0,0,0,1.49.679C291.558,330.638,291.006,329.9,290.592,330.021Z" transform="translate(-276.148 -317.269)" fill="#f3eddb"/>
    <path id="Path_293" data-name="Path 293" d="M289.374,322.588a4.741,4.741,0,0,1,.73-.207c.125-.023.255-.027.378-.052a.6.6,0,0,0,.09.013l0,.015c-.017.2.069.416.07.616a.634.634,0,0,1-.055.286c-.144-.262-.563-.467-.772-.224-.384.448.067,1.087.536,1.241a.929.929,0,0,0,1.153-.95c.03-.546-.041-1.359-.561-1.663a2.676,2.676,0,0,0-2.021.154C288.417,322,288.969,322.736,289.374,322.588Z" transform="translate(-276.148 -317.269)" fill="#f3eddb"/>
    <path id="Path_294" data-name="Path 294" d="M290.186,325.775c-.426.229.237.9.624.7a1.342,1.342,0,0,1,.3-.127c.006.07.024.16.024.2s-.015.1-.012.144c0,0,0,0,0,.007a.335.335,0,0,0-.36.089c-.147.189.026.441.174.56a.653.653,0,0,0,.934-.045,1.3,1.3,0,0,0,.084-.984,1.041,1.041,0,0,0-.766-.757A1.425,1.425,0,0,0,290.186,325.775Zm.927.941c-.014.029-.045,0,0,0Z" transform="translate(-276.148 -317.269)" fill="#f3eddb"/>
    <path id="Path_295" data-name="Path 295" d="M293.14,328.033c-.586-.017-.193.779.246.792.262.007.728,0,.868.281a.551.551,0,0,1,.009.386.63.63,0,0,1-.1.209l-.059.072a.188.188,0,0,0-.038.036c-.266-.2-.666-.242-.639.124a.8.8,0,0,0,1.046.686,1.115,1.115,0,0,0,.678-1C295.21,328.516,294.062,328.059,293.14,328.033Z" transform="translate(-276.148 -317.269)" fill="#f3eddb"/>
    <path id="Path_296" data-name="Path 296" d="M293.61,332.112c.157-.351-.474-.758-.756-.517a.623.623,0,0,0-.3-.175c-.188-.047-.435.037-.418.271C292.192,332.422,293.26,332.893,293.61,332.112Z" transform="translate(-276.148 -317.269)" fill="#f3eddb"/>
    <path id="Path_297" data-name="Path 297" d="M298.055,328.356a.826.826,0,0,0-.966-.02.361.361,0,0,0,.012.536.605.605,0,0,0,.542.2.549.549,0,0,1-.088.163.711.711,0,0,1-.714.261c-.2-.048-.42.042-.418.272a.581.581,0,0,0,.446.489,1.3,1.3,0,0,0,1.653-.936A.974.974,0,0,0,298.055,328.356Z" transform="translate(-276.148 -317.269)" fill="#f3eddb"/>
    <path id="Path_298" data-name="Path 298" d="M295.8,326.472l-.005-.056a.981.981,0,0,0-.086-.3,1.094,1.094,0,0,0-.385-.433,1.7,1.7,0,0,0-.566-.232c-.075-.018-.152-.027-.226-.046-.113-.028-.189-.11-.171,0a.6.6,0,0,0-.446-.489c-.172-.042-.457.035-.419.271a1.044,1.044,0,0,0,.452.725,3.061,3.061,0,0,0,.883.313c.152.051.1,0,.117.181a.9.9,0,0,0,.15.428.779.779,0,0,0,.828.355C296.314,327.08,296.105,326.641,295.8,326.472Z" transform="translate(-276.148 -317.269)" fill="#f3eddb"/>
    <path id="Path_299" data-name="Path 299" d="M293.509,321.445a.716.716,0,0,1,.2-.149c.007.141-.027.27-.16.3-.225.051-.244.306-.146.477a.587.587,0,0,0,.594.294c.647-.148.675-.98.429-1.476-.347-.7-1.241-.482-1.68-.019C292.441,321.2,293.191,321.781,293.509,321.445Z" transform="translate(-276.148 -317.269)" fill="#f3eddb"/>
    <path id="Path_300" data-name="Path 300" d="M295.3,323.554c.037.041.086.092.094.1a1.8,1.8,0,0,0,.319.279,1.1,1.1,0,0,0,.935.129c.683-.219.576-.966.016-1.263-.174-.093-.449-.08-.519.136a.366.366,0,0,0,.081.338.246.246,0,0,0-.074.035l-.117.017c-.044-.017-.1-.114-.137-.153a1.366,1.366,0,0,0-.528-.376.643.643,0,0,0-.877.3C294.341,323.482,295.072,323.915,295.3,323.554Z" transform="translate(-276.148 -317.269)" fill="#f3eddb"/>
    <path id="Path_301" data-name="Path 301" d="M297.038,320.352a.7.7,0,0,1,.483-.3c.009.065.046.079-.005.164a.439.439,0,0,0,.174.559c.138.1.467.214.586.013a1.041,1.041,0,0,0-.513-1.406,1.164,1.164,0,0,0-1.485.395C296.015,320.156,296.776,320.727,297.038,320.352Z" transform="translate(-276.148 -317.269)" fill="#f3eddb"/>
    <path id="Path_302" data-name="Path 302" d="M301.3,319.987a.25.25,0,0,1,.12-.081.131.131,0,0,1,.062,0,.1.1,0,0,1,.011.015c.026.046.17.324.1.319a.288.288,0,0,0-.292.387.617.617,0,0,0,.538.4.575.575,0,0,0,.627-.554,1.337,1.337,0,0,0-.33-.879,1.051,1.051,0,0,0-1.6-.189C300.253,319.765,301.009,320.343,301.3,319.987Z" transform="translate(-276.148 -317.269)" fill="#f3eddb"/>
    <path id="Path_303" data-name="Path 303" d="M299.535,323.269c.3.211.787.516,1.155.277.432-.282.138-.809-.2-1a.356.356,0,0,0-.519.136.275.275,0,0,0-.01.056.331.331,0,0,1-.122-.1.092.092,0,0,1-.018-.05c0-.122.149-.061-.036-.1.2.037.42-.034.418-.272a.578.578,0,0,0-.446-.489.632.632,0,0,0-.8.58A1.151,1.151,0,0,0,299.535,323.269Z" transform="translate(-276.148 -317.269)" fill="#f3eddb"/>
    <path id="Path_304" data-name="Path 304" d="M298.341,325.891l.128-.1-.036.585c-.027.429.83.76.864.219.017-.283.035-.565.052-.847a.909.909,0,0,0-.182-.737c-.435-.485-1.036-.129-1.449.177S297.99,326.15,298.341,325.891Z" transform="translate(-276.148 -317.269)" fill="#f3eddb"/>
    <path id="Path_305" data-name="Path 305" d="M301.338,325.756c-.183.118-.125.356-.011.5a.068.068,0,0,1,0,.034.3.3,0,0,1-.051.106.717.717,0,0,1-.267.193c-.237.121-.49.217-.735.322-.217.094-.1.414.012.537a.53.53,0,0,0,.611.161,3.028,3.028,0,0,0,1.093-.587.815.815,0,0,0-.037-1.108A.521.521,0,0,0,301.338,325.756Z" transform="translate(-276.148 -317.269)" fill="#f3eddb"/>
    <path id="Path_306" data-name="Path 306" d="M303.673,324.073a.62.62,0,0,0,.184-.8c-.093-.237-.219-.241.057-.253a.983.983,0,0,0,.488-.125c.723-.439.415-1.373-.161-1.776-.481-.336-.9.206-.413.547.332.232.019.55-.281.547-.2,0-.371-.044-.538.109a.55.55,0,0,0-.167.444c0,.093.228.6.207.614C302.642,323.655,303.312,324.321,303.673,324.073Z" transform="translate(-276.148 -317.269)" fill="#f3eddb"/>
    <path id="Path_307" data-name="Path 307" d="M291.7,336.622a35.732,35.732,0,0,1-3.209,6.994l.021-1.085c0-.215-.427-.38-.432-.109l-.037,1.928a35.933,35.933,0,0,1-4.78,6.065c-.312.319.436.9.76.573a36.158,36.158,0,0,0,3.986-4.841q-.028,1.47-.056,2.94a26.747,26.747,0,0,1-2.655,2.933c-.321.306.425.892.76.573a26.616,26.616,0,0,0,1.865-1.97l-.036,1.871c-.221.209-.436.425-.666.627-.374.329.3.982.623.7l.018-.017-.006.353c0,.215.427.38.432.109l.017-.877q.849-.781,1.622-1.631c.033.574.065,1.147.112,1.72.017.213.454.375.432.109q-.092-1.129-.147-2.26a24.955,24.955,0,0,0,2.047-2.71c.252-.386-.511-.953-.76-.572-.416.637-.868,1.245-1.337,1.839q-.036-1.21-.032-2.421a27.068,27.068,0,0,0,1.9-3.607c.171-.4-.644-.865-.843-.407-.308.712-.652,1.4-1.019,2.08.013-.455.022-.91.044-1.366.011-.214-.418-.38-.432-.109q-.056,1.145-.075,2.287-.654,1.107-1.414,2.144.03-1.5.058-3a36.37,36.37,0,0,0,4.086-8.451C292.683,336.615,291.859,336.152,291.7,336.622Zm-1.891,11.5q.009,1.137.053,2.275c-.486.583-.993,1.147-1.532,1.683q.018-1,.038-2Q289.137,349.13,289.812,348.119Z" transform="translate(-276.148 -317.269)" fill="#f3eddb"/>
    <path id="Path_308" data-name="Path 308" d="M304.047,336.632a12.474,12.474,0,0,1-2.469,6.577c-.274.367.486.941.76.572a13.1,13.1,0,0,0,2.573-6.931C304.943,336.422,304.087,336.09,304.047,336.632Z" transform="translate(-276.148 -317.269)" fill="#f3eddb"/>
    <path id="Path_309" data-name="Path 309" d="M279.627,343.031q1.3-3.036,2.533-6.1c.081-.2-.328-.434-.421-.2q-1.236,3.06-2.533,6.1C279.121,343.026,279.529,343.26,279.627,343.031Z" transform="translate(-276.148 -317.269)" fill="#f3eddb"/>
    <path id="Path_310" data-name="Path 310" d="M282.773,338.275l-3.349,8.646c-.079.2.331.435.421.2l3.349-8.646C283.273,338.276,282.863,338.043,282.773,338.275Z" transform="translate(-276.148 -317.269)" fill="#f3eddb"/>
  </g>
</svg>
