<svg xmlns="http://www.w3.org/2000/svg" width="20.645" height="24.086" viewBox="0 0 20.645 24.086">
  <g id="icons_Q2" data-name="icons Q2" transform="translate(-6 -3)">
    <path id="Path_4009" data-name="Path 4009" d="M16.322,3a6.308,6.308,0,1,0,6.308,6.308A6.308,6.308,0,0,0,16.322,3Zm0,10.322a4.014,4.014,0,1,1,4.014-4.014A4.014,4.014,0,0,1,16.322,13.322Zm9.806,7.455a17.95,17.95,0,0,0-9.806-2.867,18.408,18.408,0,0,0-9.806,2.81L6,21.064v4.874a1.147,1.147,0,0,0,1.147,1.147H25.5a1.147,1.147,0,0,0,1.147-1.147V21.064Zm-1.778,4.014H8.294V22.326A16.287,16.287,0,0,1,16.322,20.2a15.77,15.77,0,0,1,8.029,2.179Z" fill="#f3eddb"/>
  </g>
</svg>
