<svg xmlns="http://www.w3.org/2000/svg" width="40.675" height="41.252" viewBox="0 0 40.675 41.252">
  <path id="Path_4004" data-name="Path 4004" d="M22.021,0a3.328,3.328,0,0,0-2.6,1.144A3.69,3.69,0,0,0,18.4,3.812l1.779,34.561a1.847,1.847,0,0,0,3.685,0L25.643,3.812a3.447,3.447,0,0,0-1.016-2.668A3.328,3.328,0,0,0,22.021,0ZM20.751,2.414a1.73,1.73,0,0,1,1.334-.572,1.828,1.828,0,0,1,1.334.572,2.238,2.238,0,0,1,.445,1.334l-.572,10.737H20.814L20.242,3.748a1.5,1.5,0,0,1,.508-1.334Zm.127,13.913h2.287L22.021,38.309Zm14.1-14.04A3.487,3.487,0,0,0,32.5.826a3.53,3.53,0,0,0-2.732.826,3.6,3.6,0,0,0-1.334,2.541L25.96,38.754a1.773,1.773,0,0,0,1.588,1.906H27.8a1.782,1.782,0,0,0,1.779-1.525L35.617,5.082A3.574,3.574,0,0,0,34.982,2.287ZM27.8,38.817l1.588-21.982,2.287.254ZM33.838,4.765l-1.906,10.61-2.478-.318L30.217,4.32a1.89,1.89,0,0,1,.635-1.271A1.774,1.774,0,0,1,32,2.668h.254a1.686,1.686,0,0,1,1.207.7A1.819,1.819,0,0,1,33.838,4.765Z" transform="matrix(-0.719, 0.695, -0.695, -0.719, 53.91, 16.467)" fill="#f58c8c" opacity="0.5"/>
</svg>
